<svg width="603" height="557" viewBox="0 0 603 557" fill="none" xmlns="http://www.w3.org/2000/svg">
  <path fill-rule="evenodd" clip-rule="evenodd" d="M375.63 490.416C364.137 461.497 356.832 440.446 353.716 427.26C348.382 404.683 344.446 384.851 343.56 377.472C341.448 359.876 366.85 360.028 369.801 368.86C374.268 382.229 380.32 421.751 387.956 487.427L375.63 490.416Z" fill="#B28B67"/>
  <path fill-rule="evenodd" clip-rule="evenodd" d="M325.94 333.646L335.849 234.756C336.626 216.196 375.368 223.803 376.884 233.414C380.327 255.233 375.678 331.86 376.704 338.36L325.94 333.646Z" fill="#2F3676"/>
  <path fill-rule="evenodd" clip-rule="evenodd" d="M514.354 241.535C521.09 239.274 528.404 238.849 535.102 242.1C554.402 251.467 538.934 277.358 526.752 278.712C514.569 280.065 489.401 269.218 490.399 261.549C490.798 258.491 494.918 253.289 500.953 248.733L472.754 241.792L481.695 219.52L514.354 241.535Z" fill="#B28B67"/>
  <path fill-rule="evenodd" clip-rule="evenodd" d="M174.413 94.8491C181.628 105.228 205.21 141.973 213.761 160.358C216.218 165.642 218.554 170.773 220.711 175.607C227.121 189.975 201.816 204.153 196.322 190.155C182.642 155.294 165.246 105.403 163.615 101.167C161.328 95.2301 169.879 88.326 174.413 94.8491Z" fill="#B28B67"/>
  <path fill-rule="evenodd" clip-rule="evenodd" d="M151.692 55.0988C151.217 51.9452 150.619 49.7207 149.897 48.4253C149.02 46.8497 147.478 44.6967 145.27 41.9662C143.442 42.9838 127.016 52.1288 95.9904 69.4014C97.0668 74.3479 99.0785 76.222 102.025 75.0235C104.972 73.825 107.434 72.8538 109.411 72.1098L138 69.5692C138.55 69.5204 138.956 69.0348 138.908 68.4847C138.907 68.4752 138.906 68.4658 138.905 68.4565L138.389 64.0654C140.279 61.4517 142.023 59.7003 143.62 58.8113C144.917 58.089 147.001 57.6154 149.871 57.3907L149.871 57.3907C150.972 57.3045 151.795 56.3418 151.708 55.2406C151.705 55.1932 151.699 55.1459 151.692 55.0988Z" fill="#E4E4E4"/>
  <path fill-rule="evenodd" clip-rule="evenodd" d="M379.967 514.529C378.139 517.142 377.04 519.167 376.67 520.602C376.22 522.349 375.855 524.972 375.574 528.472C377.6 528.994 395.806 533.683 430.194 542.539C432.821 538.212 432.655 535.468 429.693 534.306C426.731 533.144 424.278 532.152 422.333 531.33L399.861 513.474C399.428 513.131 398.799 513.203 398.456 513.635C398.45 513.642 398.444 513.65 398.438 513.657L395.787 517.196C392.616 517.787 390.146 517.855 388.376 517.4C386.938 517.029 385.101 515.937 382.866 514.123L382.866 514.123C382.009 513.427 380.749 513.558 380.053 514.415C380.023 514.452 379.995 514.49 379.967 514.529Z" fill="#E4E4E4"/>
  <path fill-rule="evenodd" clip-rule="evenodd" d="M292.3 239.332C298.41 209.043 302.573 188.758 304.787 178.476C311.098 149.17 327.297 141.163 361.745 147.552L359.701 201.909C357.354 209.025 343.376 238.598 317.769 290.63C312.685 299.974 298.815 297.677 294.289 295.764C294.105 295.686 267.204 278.601 213.587 244.509L243.586 201.107L288.959 239.29C290.86 240.325 291.974 240.339 292.3 239.332Z" fill="#5C63AB"/>
  <path fill-rule="evenodd" clip-rule="evenodd" d="M443.562 295.763L448.943 334.97C453.288 342.807 456.233 350.019 457.778 356.605C457.835 358.459 457.172 361.41 453.528 357.022C449.884 352.635 445.854 348.184 443.916 348.97C441.977 349.757 442.706 353.842 439.723 354.524C437.735 354.979 437.399 348.348 438.717 334.629L426.138 302.831L443.562 295.763ZM409.189 340.829L411.576 358.06C418.418 362.962 421.333 366.812 420.319 369.61C420.498 372.124 412.308 364.737 411.596 369.103C410.884 373.469 414.46 386.154 412.318 387.287C409.15 388.963 403.23 384.13 400.868 380.197C396.455 372.846 395.863 367.929 396.905 356.732C397.45 350.878 396.676 344.028 394.585 336.184L409.189 340.829Z" fill="#997659"/>
  <path fill-rule="evenodd" clip-rule="evenodd" d="M437.423 231.086C433.207 242.49 429.824 258.551 433.913 278.629L417.336 279.572C410.529 264.201 407.423 245.057 413.04 231.499C417.466 220.814 432.638 220.281 437.423 231.086Z" fill="#2026A2"/>
  <path fill-rule="evenodd" clip-rule="evenodd" d="M412.018 241.155C404.408 252.065 400.235 273.64 399.499 305.878C382.247 307.358 370.621 306.649 364.621 303.75C361.197 274.546 363.494 251.512 369.683 234.176C359.272 230.828 350.039 225.881 342.762 218.323C327.801 202.787 363.858 159.018 366.98 140.866C405.354 143.401 411.504 169.172 433.469 177.576C457.523 186.779 487.183 220.237 486.098 223.08L476.202 249.002C457.28 243.417 434.28 242.885 412.018 241.155Z" fill="#1F28CF"/>
  <path fill-rule="evenodd" clip-rule="evenodd" d="M595.554 265.792C596.596 266.115 597.478 266.891 598.284 267.645C599.121 268.429 599.953 269.227 600.697 270.109C602.184 271.87 603.384 274.161 602.769 276.452C602.276 278.289 600.854 279.738 599.337 280.683C598.326 281.313 597.168 281.729 595.986 281.924C594.813 282.117 593.608 281.911 592.425 282.01C593.509 284.178 594.313 286.619 594.18 289.023C594.051 291.336 592.895 293.199 591.127 294.454C589.311 295.743 587.142 296.292 584.898 296.258C584.336 296.25 583.772 296.228 583.21 296.163C582.739 296.109 582.23 296.014 581.772 296.131C581.261 296.262 581.172 296.642 581.05 297.129C580.906 297.699 580.694 298.245 580.439 298.765C579.312 301.062 577.201 302.865 574.663 303.164C573.494 303.302 572.216 303.166 571.101 302.643C570.108 302.176 569.046 301.168 567.951 301.053C567.486 301.004 567.4 301.435 567.202 301.823C566.905 302.407 566.648 303.013 566.34 303.591C565.908 304.401 565.36 305.125 564.675 305.712C563.672 306.57 562.063 307.33 560.958 306.007C560.543 305.509 560.324 304.86 560.069 304.274C559.719 303.469 559.371 302.664 559.034 301.853C558.778 301.238 558.546 300.636 558.356 300C558.255 299.661 558.141 298.99 557.848 298.75C557.481 298.451 556.834 299.067 556.501 299.224C555.844 299.532 555.14 299.756 554.402 299.792C553.83 299.819 553.182 299.758 552.712 299.331C552.424 299.069 552.281 298.72 552.164 298.356C552.023 297.921 551.834 297.749 551.573 297.371C550.931 298.246 548.431 300.752 547.247 299.4C546.853 298.95 546.835 298.219 546.826 297.671C546.811 296.709 546.949 295.751 547.114 294.82C547.459 292.877 548.111 291.016 548.95 289.278C546.97 289.402 545.451 287.513 546.188 285.532C546.514 284.657 547.275 284.102 548.069 283.734C548.359 283.599 548.825 283.495 549.023 283.329C549.129 283.24 549.205 283.071 549.365 282.973C550.42 282.327 551.792 281.947 552.988 281.632C555.119 281.071 557.393 281.033 559.583 281.64C560.145 281.796 560.563 281.836 561.069 281.566C561.512 281.329 561.886 280.979 562.325 280.735C563.488 280.091 564.85 280.113 566.144 279.926C565.441 278.413 565.013 276.565 564.924 274.921C564.852 273.579 565.799 272.885 566.761 272.262C569.838 270.271 573.261 268.918 576.498 267.224C572.993 268.151 569.6 269.548 566.058 270.334C564.456 270.69 565.035 269.184 565.294 268.214C565.719 266.618 565.757 264.895 565.531 263.218C568.107 264.418 571.506 264.322 573.587 262.455C575.888 260.392 575.885 255.829 572.843 254.133C571.076 253.149 568.995 253.499 567.179 253.627C567.708 251.824 567.063 249.905 566.979 248.048C566.938 247.133 566.985 246.049 567.617 245.392C567.852 245.149 568.18 244.968 568.283 244.62C568.411 244.189 568.31 243.835 568.536 243.404C569.437 241.685 571.683 240.61 573.603 241.239C575.34 241.808 576.002 243.796 575.669 245.464C577.502 245.307 580.665 244.684 581.29 247.341C584.665 245.857 595.344 247.017 592.981 253.166C596.092 253.271 600.03 255.439 600.012 259.169C599.998 262.042 597.759 264.49 595.554 265.792Z" fill="#191847"/>
</svg>
