<svg width="169" height="401" viewBox="0 0 169 401" fill="none" xmlns="http://www.w3.org/2000/svg">
<g clip-path="url(#clip0)">
<path d="M56 25.2358L74.5676 6.65584C77.6912 3.531 82.7565 3.52995 85.8813 6.6535C85.8821 6.65428 85.8829 6.65506 85.8837 6.65584L135.316 56.1133C138.315 59.1137 140 63.1823 140 67.4246V395" stroke="#CBCBCB" stroke-width="8"/>
<path d="M166 394H113C111.343 394 110 395.343 110 397V398C110 399.657 111.343 401 113 401H166C167.657 401 169 399.657 169 398V397C169 395.343 167.657 394 166 394Z" fill="#AFB9C5"/>
<path fill-rule="evenodd" clip-rule="evenodd" d="M67.1685 14.3345C80.0558 27.2218 80.0558 48.1163 67.1685 61.0036L47.3695 80.8026L0.700471 34.1335L20.4995 14.3345C33.3868 1.44722 54.2812 1.44722 67.1685 14.3345Z" fill="#C5CFD6"/>
<path d="M20.2291 61.5269C33.1164 74.4142 45.6214 82.8036 48.1598 80.2652C50.6982 77.7268 42.3087 65.2218 29.4214 52.3345C16.5341 39.4472 4.02913 31.0578 1.49072 33.5962C-1.04769 36.1346 7.34175 48.6396 20.2291 61.5269Z" fill="#F2F2F2"/>
</g>
<defs>
<clipPath id="clip0">
<rect width="169" height="401" fill="white"/>
</clipPath>
</defs>
</svg>
